<svg xmlns="http://www.w3.org/2000/svg" xmlns:xlink="http://www.w3.org/1999/xlink" width="500" zoomAndPan="magnify" viewBox="0 0 375 374.999991" height="500" preserveAspectRatio="xMidYMid meet" version="1.0"><defs><clipPath id="343c073f89"><path d="M 12.601562 28.503906 L 362.101562 28.503906 L 362.101562 346.503906 L 12.601562 346.503906 Z M 12.601562 28.503906 " clip-rule="nonzero"/></clipPath></defs><g clip-path="url(#343c073f89)"><path fill="#ffffff" d="M 222.742188 57 C 223.59375 57 224.394531 57.675781 225.082031 58.914062 C 217.636719 57.632812 210.132812 56.992188 202.578125 57 Z M 77.6875 86.472656 L 285.253906 86.472656 C 280.945312 82.917969 276.421875 79.664062 271.683594 76.699219 C 266.949219 73.738281 262.042969 71.09375 256.960938 68.769531 C 251.882812 66.449219 246.671875 64.464844 241.335938 62.816406 C 235.996094 61.171875 230.574219 59.878906 225.070312 58.941406 C 217.628906 57.648438 210.128906 57.003906 202.578125 57 L 111.878906 57 C 114.8125 54.960938 117.8125 53.023438 120.878906 51.1875 C 123.945312 49.351562 127.066406 47.621094 130.25 45.996094 C 133.433594 44.371094 136.667969 42.851562 139.949219 41.445312 C 143.234375 40.035156 146.5625 38.742188 149.9375 37.558594 C 153.308594 36.375 156.714844 35.304688 160.160156 34.351562 C 163.605469 33.398438 167.074219 32.5625 170.574219 31.84375 C 174.078125 31.125 177.597656 30.523438 181.136719 30.039062 C 184.679688 29.558594 188.230469 29.195312 191.796875 28.953125 C 195.363281 28.710938 198.933594 28.585938 202.503906 28.585938 C 206.078125 28.582031 209.648438 28.703125 213.214844 28.941406 C 216.78125 29.179688 220.332031 29.535156 223.875 30.015625 C 227.414062 30.492188 230.9375 31.089844 234.4375 31.804688 C 237.941406 32.519531 241.414062 33.351562 244.859375 34.300781 C 248.304688 35.253906 251.710938 36.316406 255.085938 37.496094 C 258.457031 38.675781 261.789062 39.96875 265.074219 41.371094 C 268.359375 42.773438 271.597656 44.289062 274.78125 45.910156 C 285.566406 51.445312 295.59375 58.117188 304.863281 65.925781 C 314.136719 73.734375 322.417969 82.480469 329.707031 92.164062 L 346.773438 114.894531 L 77.6875 114.894531 C 76.753906 114.894531 75.828125 114.804688 74.914062 114.621094 C 74 114.441406 73.113281 114.171875 72.25 113.8125 C 71.390625 113.457031 70.570312 113.019531 69.796875 112.5 C 69.019531 111.984375 68.304688 111.394531 67.644531 110.734375 C 66.984375 110.074219 66.394531 109.359375 65.878906 108.582031 C 65.359375 107.808594 64.921875 106.988281 64.566406 106.128906 C 64.207031 105.265625 63.9375 104.378906 63.757812 103.464844 C 63.574219 102.550781 63.484375 101.625 63.484375 100.691406 C 63.484375 99.761719 63.574219 98.835938 63.757812 97.921875 C 63.9375 97.007812 64.207031 96.121094 64.566406 95.257812 C 64.921875 94.398438 65.359375 93.578125 65.878906 92.804688 C 66.394531 92.027344 66.984375 91.308594 67.644531 90.652344 C 68.304688 89.992188 69.019531 89.402344 69.796875 88.886719 C 70.570312 88.367188 71.390625 87.929688 72.25 87.574219 C 73.113281 87.214844 74 86.945312 74.914062 86.765625 C 75.828125 86.582031 76.753906 86.492188 77.6875 86.492188 Z M 359.21875 219.300781 C 361.335938 208.816406 362.394531 198.230469 362.394531 187.535156 C 362.394531 176.839844 361.335938 166.25 359.21875 155.765625 L 356.90625 144.378906 L 26.804688 144.378906 C 25.871094 144.378906 24.949219 144.46875 24.035156 144.652344 C 23.121094 144.832031 22.230469 145.101562 21.371094 145.460938 C 20.507812 145.816406 19.691406 146.253906 18.914062 146.773438 C 18.140625 147.289062 17.421875 147.878906 16.761719 148.539062 C 16.101562 149.199219 15.515625 149.914062 14.996094 150.691406 C 14.480469 151.464844 14.042969 152.285156 13.683594 153.144531 C 13.328125 154.007812 13.058594 154.894531 12.875 155.808594 C 12.695312 156.722656 12.601562 157.648438 12.601562 158.582031 C 12.601562 159.511719 12.695312 160.4375 12.875 161.351562 C 13.058594 162.265625 13.328125 163.152344 13.683594 164.015625 C 14.042969 164.875 14.480469 165.695312 14.996094 166.46875 C 15.515625 167.246094 16.101562 167.964844 16.761719 168.621094 C 17.421875 169.28125 18.140625 169.871094 18.914062 170.386719 C 19.691406 170.90625 20.507812 171.34375 21.371094 171.699219 C 22.230469 172.058594 23.121094 172.328125 24.035156 172.507812 C 24.949219 172.691406 25.871094 172.78125 26.804688 172.78125 L 333.148438 172.78125 C 334.25 182.597656 334.25 192.410156 333.148438 202.226562 L 26.804688 202.226562 C 25.871094 202.226562 24.949219 202.316406 24.035156 202.5 C 23.121094 202.679688 22.230469 202.949219 21.371094 203.308594 C 20.507812 203.664062 19.691406 204.101562 18.914062 204.621094 C 18.140625 205.136719 17.421875 205.726562 16.761719 206.386719 C 16.101562 207.042969 15.515625 207.761719 14.996094 208.539062 C 14.480469 209.3125 14.042969 210.132812 13.683594 210.992188 C 13.328125 211.855469 13.058594 212.742188 12.875 213.65625 C 12.695312 214.570312 12.601562 215.496094 12.601562 216.425781 C 12.601562 217.359375 12.695312 218.285156 12.875 219.199219 C 13.058594 220.113281 13.328125 221 13.683594 221.863281 C 14.042969 222.722656 14.480469 223.542969 14.996094 224.316406 C 15.515625 225.09375 16.101562 225.808594 16.761719 226.46875 C 17.421875 227.128906 18.140625 227.71875 18.914062 228.234375 C 19.691406 228.753906 20.507812 229.191406 21.371094 229.546875 C 22.230469 229.90625 23.121094 230.171875 24.035156 230.355469 C 24.949219 230.539062 25.871094 230.628906 26.804688 230.628906 L 356.90625 230.628906 Z M 77.6875 260.09375 L 317.660156 260.09375 L 346.742188 260.132812 L 329.707031 282.871094 C 322.417969 292.554688 314.136719 301.296875 304.867188 309.101562 C 295.59375 316.90625 285.566406 323.574219 274.78125 329.105469 C 271.597656 330.734375 268.359375 332.253906 265.074219 333.664062 C 261.785156 335.074219 258.453125 336.371094 255.078125 337.554688 C 251.703125 338.742188 248.292969 339.808594 244.847656 340.761719 C 241.398438 341.714844 237.921875 342.550781 234.417969 343.269531 C 230.914062 343.988281 227.390625 344.585938 223.847656 345.066406 C 220.300781 345.546875 216.746094 345.90625 213.175781 346.144531 C 209.605469 346.382812 206.035156 346.5 202.457031 346.5 C 198.878906 346.496094 195.308594 346.371094 191.738281 346.125 C 188.171875 345.882812 184.613281 345.515625 181.070312 345.03125 C 177.527344 344.542969 174.003906 343.9375 170.5 343.214844 C 166.996094 342.488281 163.523438 341.648438 160.078125 340.6875 C 156.632812 339.730469 153.222656 338.652344 149.847656 337.464844 C 146.476562 336.273438 143.148438 334.96875 139.863281 333.554688 C 136.578125 332.136719 133.34375 330.613281 130.164062 328.976562 C 126.980469 327.34375 123.859375 325.601562 120.796875 323.757812 C 117.734375 321.910156 114.734375 319.960938 111.804688 317.914062 L 202.609375 317.988281 C 206.34375 318.003906 210.070312 317.855469 213.792969 317.550781 C 217.511719 317.242188 221.210938 316.773438 224.894531 316.144531 C 228.574219 315.519531 232.21875 314.730469 235.832031 313.789062 C 239.441406 312.84375 243.007812 311.746094 246.523438 310.496094 C 250.042969 309.242188 253.496094 307.839844 256.894531 306.289062 C 260.289062 304.734375 263.609375 303.039062 266.859375 301.199219 C 270.109375 299.359375 273.269531 297.382812 276.347656 295.269531 C 279.425781 293.15625 282.40625 290.914062 285.289062 288.542969 L 77.6875 288.542969 C 76.753906 288.542969 75.828125 288.453125 74.914062 288.269531 C 74 288.089844 73.113281 287.820312 72.25 287.460938 C 71.390625 287.105469 70.570312 286.667969 69.796875 286.148438 C 69.019531 285.632812 68.304688 285.042969 67.644531 284.382812 C 66.984375 283.722656 66.394531 283.007812 65.878906 282.230469 C 65.359375 281.457031 64.921875 280.636719 64.566406 279.777344 C 64.207031 278.914062 63.9375 278.027344 63.757812 277.113281 C 63.574219 276.199219 63.484375 275.273438 63.484375 274.339844 C 63.484375 273.410156 63.574219 272.484375 63.757812 271.570312 C 63.9375 270.65625 64.207031 269.769531 64.566406 268.90625 C 64.921875 268.046875 65.359375 267.226562 65.878906 266.453125 C 66.394531 265.675781 66.984375 264.960938 67.644531 264.300781 C 68.304688 263.640625 69.019531 263.050781 69.796875 262.535156 C 70.570312 262.015625 71.390625 261.578125 72.25 261.222656 C 73.113281 260.863281 74 260.59375 74.914062 260.414062 C 75.828125 260.230469 76.753906 260.140625 77.6875 260.140625 Z M 77.6875 260.09375 " fill-opacity="1" fill-rule="nonzero"/></g></svg>