<svg xmlns="http://www.w3.org/2000/svg" xmlns:xlink="http://www.w3.org/1999/xlink" width="500" zoomAndPan="magnify" viewBox="0 0 375 374.999991" height="500" preserveAspectRatio="xMidYMid meet" version="1.0"><defs><clipPath id="d8e37c74e5"><path d="M 187.5 0 C 83.945312 0 0 83.945312 0 187.5 C 0 291.054688 83.945312 375 187.5 375 C 291.054688 375 375 291.054688 375 187.5 C 375 83.945312 291.054688 0 187.5 0 Z M 187.5 0 " clip-rule="nonzero"/></clipPath><clipPath id="b914cc6403"><path d="M 7.394531 28.503906 L 356.894531 28.503906 L 356.894531 346.503906 L 7.394531 346.503906 Z M 7.394531 28.503906 " clip-rule="nonzero"/></clipPath></defs><g clip-path="url(#d8e37c74e5)"><rect x="-37.5" width="450" fill="#000000" y="-37.499999" height="449.999989" fill-opacity="1"/></g><g clip-path="url(#b914cc6403)"><path fill="#ffffff" d="M 217.535156 57 C 218.386719 57 219.183594 57.675781 219.875 58.914062 C 212.425781 57.632812 204.925781 56.992188 197.367188 57 Z M 72.476562 86.472656 L 280.046875 86.472656 C 275.734375 82.917969 271.210938 79.664062 266.476562 76.699219 C 261.742188 73.738281 256.832031 71.09375 251.753906 68.769531 C 246.675781 66.449219 241.464844 64.464844 236.128906 62.816406 C 230.789062 61.171875 225.367188 59.878906 219.859375 58.941406 C 212.417969 57.648438 204.921875 57.003906 197.367188 57 L 106.667969 57 C 109.605469 54.960938 112.605469 53.023438 115.671875 51.1875 C 118.734375 49.351562 121.859375 47.621094 125.042969 45.996094 C 128.222656 44.371094 131.457031 42.851562 134.742188 41.445312 C 138.027344 40.035156 141.355469 38.742188 144.726562 37.558594 C 148.097656 36.375 151.507812 35.304688 154.953125 34.351562 C 158.394531 33.398438 161.867188 32.5625 165.367188 31.84375 C 168.867188 31.125 172.386719 30.523438 175.929688 30.039062 C 179.46875 29.558594 183.023438 29.195312 186.589844 28.953125 C 190.152344 28.710938 193.722656 28.585938 197.296875 28.585938 C 200.871094 28.582031 204.441406 28.703125 208.003906 28.941406 C 211.570312 29.179688 215.125 29.535156 218.667969 30.015625 C 222.207031 30.492188 225.730469 31.089844 229.230469 31.804688 C 232.730469 32.519531 236.203125 33.351562 239.648438 34.300781 C 243.09375 35.253906 246.503906 36.316406 249.878906 37.496094 C 253.25 38.675781 256.582031 39.96875 259.867188 41.371094 C 263.152344 42.773438 266.386719 44.289062 269.570312 45.910156 C 280.355469 51.445312 290.382812 58.117188 299.65625 65.925781 C 308.929688 73.734375 317.207031 82.480469 324.496094 92.164062 L 341.566406 114.894531 L 72.476562 114.894531 C 71.546875 114.894531 70.621094 114.804688 69.707031 114.621094 C 68.792969 114.441406 67.90625 114.171875 67.042969 113.8125 C 66.179688 113.457031 65.363281 113.019531 64.585938 112.5 C 63.8125 111.984375 63.09375 111.394531 62.4375 110.734375 C 61.777344 110.074219 61.1875 109.359375 60.667969 108.582031 C 60.152344 107.808594 59.714844 106.988281 59.355469 106.128906 C 59 105.265625 58.730469 104.378906 58.550781 103.464844 C 58.367188 102.550781 58.277344 101.625 58.277344 100.691406 C 58.277344 99.761719 58.367188 98.835938 58.550781 97.921875 C 58.730469 97.007812 59 96.121094 59.355469 95.257812 C 59.714844 94.398438 60.152344 93.578125 60.667969 92.804688 C 61.1875 92.027344 61.777344 91.308594 62.4375 90.652344 C 63.09375 89.992188 63.8125 89.402344 64.585938 88.886719 C 65.363281 88.367188 66.179688 87.929688 67.042969 87.574219 C 67.90625 87.214844 68.792969 86.945312 69.707031 86.765625 C 70.621094 86.582031 71.546875 86.492188 72.476562 86.492188 Z M 354.007812 219.300781 C 356.128906 208.816406 357.1875 198.230469 357.1875 187.535156 C 357.1875 176.839844 356.128906 166.25 354.007812 155.765625 L 351.695312 144.378906 L 21.597656 144.378906 C 20.664062 144.378906 19.742188 144.46875 18.824219 144.652344 C 17.910156 144.832031 17.023438 145.101562 16.160156 145.460938 C 15.300781 145.816406 14.480469 146.253906 13.707031 146.773438 C 12.929688 147.289062 12.214844 147.878906 11.554688 148.539062 C 10.894531 149.199219 10.304688 149.914062 9.789062 150.691406 C 9.269531 151.464844 8.832031 152.285156 8.476562 153.144531 C 8.117188 154.007812 7.851562 154.894531 7.667969 155.808594 C 7.484375 156.722656 7.394531 157.648438 7.394531 158.582031 C 7.394531 159.511719 7.484375 160.4375 7.667969 161.351562 C 7.851562 162.265625 8.117188 163.152344 8.476562 164.015625 C 8.832031 164.875 9.269531 165.695312 9.789062 166.46875 C 10.304688 167.246094 10.894531 167.964844 11.554688 168.621094 C 12.214844 169.28125 12.929688 169.871094 13.707031 170.386719 C 14.480469 170.90625 15.300781 171.34375 16.160156 171.699219 C 17.023438 172.058594 17.910156 172.328125 18.824219 172.507812 C 19.742188 172.691406 20.664062 172.78125 21.597656 172.78125 L 327.941406 172.78125 C 329.042969 182.597656 329.042969 192.410156 327.941406 202.226562 L 21.597656 202.226562 C 20.664062 202.226562 19.742188 202.316406 18.824219 202.5 C 17.910156 202.679688 17.023438 202.949219 16.160156 203.308594 C 15.300781 203.664062 14.480469 204.101562 13.707031 204.621094 C 12.929688 205.136719 12.214844 205.726562 11.554688 206.386719 C 10.894531 207.042969 10.304688 207.761719 9.789062 208.539062 C 9.269531 209.3125 8.832031 210.132812 8.476562 210.992188 C 8.117188 211.855469 7.851562 212.742188 7.667969 213.65625 C 7.484375 214.570312 7.394531 215.496094 7.394531 216.425781 C 7.394531 217.359375 7.484375 218.285156 7.667969 219.199219 C 7.851562 220.113281 8.117188 221 8.476562 221.863281 C 8.832031 222.722656 9.269531 223.542969 9.789062 224.316406 C 10.304688 225.09375 10.894531 225.808594 11.554688 226.46875 C 12.214844 227.128906 12.929688 227.71875 13.707031 228.234375 C 14.480469 228.753906 15.300781 229.191406 16.160156 229.546875 C 17.023438 229.90625 17.910156 230.171875 18.824219 230.355469 C 19.742188 230.539062 20.664062 230.628906 21.597656 230.628906 L 351.695312 230.628906 Z M 72.476562 260.09375 L 312.453125 260.09375 L 341.53125 260.132812 L 324.496094 282.871094 C 317.210938 292.554688 308.929688 301.296875 299.65625 309.101562 C 290.386719 316.90625 280.355469 323.574219 269.570312 329.105469 C 266.386719 330.734375 263.152344 332.253906 259.863281 333.664062 C 256.578125 335.074219 253.246094 336.371094 249.871094 337.554688 C 246.496094 338.742188 243.085938 339.808594 239.636719 340.761719 C 236.191406 341.714844 232.714844 342.550781 229.210938 343.269531 C 225.707031 343.988281 222.183594 344.585938 218.636719 345.066406 C 215.09375 345.546875 211.535156 345.90625 207.96875 346.144531 C 204.398438 346.382812 200.824219 346.5 197.25 346.5 C 193.671875 346.496094 190.097656 346.371094 186.53125 346.125 C 182.960938 345.882812 179.40625 345.515625 175.863281 345.03125 C 172.316406 344.542969 168.792969 343.9375 165.292969 343.214844 C 161.789062 342.488281 158.316406 341.648438 154.871094 340.6875 C 151.421875 339.730469 148.015625 338.652344 144.640625 337.464844 C 141.269531 336.273438 137.9375 334.96875 134.65625 333.554688 C 131.371094 332.136719 128.136719 330.613281 124.957031 328.976562 C 121.773438 327.34375 118.652344 325.601562 115.585938 323.757812 C 112.523438 321.910156 109.527344 319.960938 106.59375 317.914062 L 197.402344 317.988281 C 201.136719 318.003906 204.863281 317.855469 208.582031 317.550781 C 212.304688 317.242188 216.003906 316.773438 219.683594 316.144531 C 223.363281 315.519531 227.011719 314.730469 230.621094 313.789062 C 234.234375 312.84375 237.800781 311.746094 241.316406 310.496094 C 244.832031 309.242188 248.289062 307.839844 251.683594 306.289062 C 255.082031 304.734375 258.402344 303.039062 261.652344 301.199219 C 264.898438 299.359375 268.0625 297.382812 271.140625 295.269531 C 274.21875 293.15625 277.199219 290.914062 280.082031 288.542969 L 72.476562 288.542969 C 71.546875 288.542969 70.621094 288.453125 69.707031 288.269531 C 68.792969 288.089844 67.90625 287.820312 67.042969 287.460938 C 66.179688 287.105469 65.363281 286.667969 64.585938 286.148438 C 63.8125 285.632812 63.09375 285.042969 62.4375 284.382812 C 61.777344 283.722656 61.1875 283.007812 60.667969 282.230469 C 60.152344 281.457031 59.714844 280.636719 59.355469 279.777344 C 59 278.914062 58.730469 278.027344 58.550781 277.113281 C 58.367188 276.199219 58.277344 275.273438 58.277344 274.339844 C 58.277344 273.410156 58.367188 272.484375 58.550781 271.570312 C 58.730469 270.65625 59 269.769531 59.355469 268.90625 C 59.714844 268.046875 60.152344 267.226562 60.667969 266.453125 C 61.1875 265.675781 61.777344 264.960938 62.4375 264.300781 C 63.09375 263.640625 63.8125 263.050781 64.585938 262.535156 C 65.363281 262.015625 66.179688 261.578125 67.042969 261.222656 C 67.90625 260.863281 68.792969 260.59375 69.707031 260.414062 C 70.621094 260.230469 71.546875 260.140625 72.476562 260.140625 Z M 72.476562 260.09375 " fill-opacity="1" fill-rule="nonzero"/></g></svg>